<svg xmlns="http://www.w3.org/2000/svg" viewBox="0 0 128 128">
  <defs>
    <linearGradient id="g" x1="0%" y1="0%" x2="100%" y2="100%">
      <stop offset="0%" stop-color="#FA7042"/>
      <stop offset="100%" stop-color="#F7AE3A"/>
    </linearGradient>
  </defs>
  <circle cx="64" cy="64" r="46" fill="url(#g)"/>
  <g fill="#FFFFFF">
    <circle cx="64" cy="64" r="13"/>
    <rect x="61" y="32" width="6" height="12" rx="3"/>
    <rect x="61" y="84" width="6" height="12" rx="3"/>
    <rect x="32" y="61" width="12" height="6" rx="3"/>
    <rect x="84" y="61" width="12" height="6" rx="3"/>
    <rect x="41.6" y="41.6" width="10" height="6" rx="3" transform="rotate(-45 46.6 44.6)"/>
    <rect x="76.4" y="80.4" width="10" height="6" rx="3" transform="rotate(-45 81.4 83.4)"/>
    <rect x="80.4" y="41.6" width="10" height="6" rx="3" transform="rotate(45 85.4 44.6)"/>
    <rect x="41.6" y="80.4" width="10" height="6" rx="3" transform="rotate(45 46.6 83.4)"/>
  </g>
</svg>
